<svg width="60" height="60" viewBox="0 0 60 60" fill="none" xmlns="http://www.w3.org/2000/svg">
<path fill-rule="evenodd" clip-rule="evenodd" d="M21.3106 15.5245C21.6761 15.318 22.1194 15.2 22.5797 15.2H43.2745C43.7277 15.2 44.1629 15.3147 44.5502 15.5283L44.5531 15.5299L46.4898 16.6179L46.5005 16.6238C46.6874 16.7263 46.8536 16.8623 46.9908 17.0145L47.0403 17.1143C47.1131 17.2605 47.2172 17.4696 47.3431 17.7215C47.5948 18.2251 47.9339 18.9006 48.2827 19.5869C48.6309 20.272 48.9914 20.9729 49.2851 21.5255C49.4314 21.8008 49.5653 22.0469 49.6747 22.2385C49.7291 22.3336 49.7824 22.424 49.8313 22.5016L49.832 22.5027C49.8647 22.5546 49.945 22.6819 50.0477 22.7928C50.5336 23.3182 51.0528 23.7975 51.588 24.2435L51.5922 24.247C52.3452 24.8687 52.7998 25.9437 52.7998 26.7168V34.7156L52.7985 34.7189C52.7898 34.7411 52.7402 34.8683 52.4785 35.0454C52.1641 35.2581 51.7424 35.3911 51.3845 35.3911H50.6998V30.7576L48.2093 28.3H47.1998V25.8L45.9998 24.6H40.9998L39.7998 25.8V28.3H36.1998V25.8L34.9998 24.6H29.9998L28.7998 25.8V28.3H28.6282L26.2998 30.5977V35.3849H24.6014V37.7849H26.2998V44.3195L28.9901 46.7H47.7308L50.6998 44.3613V37.7911H51.3845C52.2502 37.7911 53.1362 37.4982 53.8235 37.0331C54.4799 36.589 55.1998 35.8061 55.1998 34.7316V26.7168C55.1998 25.2353 54.4316 23.4803 53.1226 22.3982C52.669 22.0202 52.2451 21.6287 51.8565 21.2136C51.834 21.1777 51.8017 21.1233 51.7586 21.048C51.667 20.8876 51.5464 20.6663 51.4042 20.3989C51.121 19.8661 50.7684 19.1806 50.4222 18.4995C50.0767 17.8197 49.7402 17.1493 49.4899 16.6485C49.3648 16.3982 49.2614 16.1905 49.1892 16.0455L49.0191 15.7028L48.9383 15.6018C48.6093 15.1904 48.1799 14.8086 47.6603 14.5226L45.7217 13.4336L45.7149 13.4298C44.9752 13.0206 44.1398 12.8 43.2745 12.8H22.5797C21.7208 12.8 20.8692 13.0176 20.1313 13.4343L20.1297 13.4352L18.1938 14.5226C17.6739 14.8087 17.2581 15.178 16.9193 15.5974L13.1916 20.2781L13.1769 20.2982C13.1261 20.3677 13.003 20.475 12.7658 20.5616L12.7639 20.5623L8.29762 22.1668C6.27018 22.8791 4.7998 24.6273 4.7998 26.7168V34.7316C4.7998 36.6133 6.57543 37.7911 8.23125 37.7911H10.2947V35.3911H8.23125C7.89758 35.3911 7.61275 35.2741 7.42768 35.1205C7.24341 34.9675 7.1998 34.8215 7.1998 34.7316V26.7168C7.1998 25.8327 7.83863 24.8707 9.09593 24.4302L13.5797 22.8194L13.5841 22.8178C14.1298 22.6194 14.6938 22.2781 15.0977 21.7371L18.7887 17.1025C18.9519 16.9011 19.1335 16.7446 19.3536 16.6238L21.3078 15.5261L21.3106 15.5245ZM33.7998 28.3V27H31.1998V28.3H33.7998ZM44.7998 27V28.3H42.1998V27H44.7998ZM29.8995 44.3L28.6998 43.2385L28.6998 31.6011L29.613 30.7H47.2245L48.2998 31.7611V43.1967L46.8991 44.3H29.8995Z" fill="white"/>
<path fill-rule="evenodd" clip-rule="evenodd" d="M12.4044 37.9241C11.7792 34.6217 14.6313 31.7696 17.9337 32.3948L17.9378 32.3956C19.7832 32.7517 21.2913 34.2413 21.6484 36.1077L21.6488 36.11C22.274 39.4123 19.4219 42.2644 16.1196 41.6392L16.1154 41.6384C14.2701 41.2823 12.7619 39.7928 12.4048 37.9263L12.4044 37.9241ZM17.4851 34.7526C15.846 34.4437 14.4527 35.8373 14.7623 37.4765C14.9334 38.3682 15.6794 39.1091 16.5681 39.2815C18.2073 39.5904 19.6005 38.1968 19.2909 36.5575C19.1198 35.6659 18.3738 34.925 17.4851 34.7526Z" fill="white"/>
<path d="M22.2 37.8L24.6 35.4V37.8H22.2Z" fill="white"/>
<path fill-rule="evenodd" clip-rule="evenodd" d="M40.8412 33.1968L38.7272 36.5H41.9272L37.8431 42.8813L36.1586 41.8032L38.2726 38.5H35.0726L39.1567 32.1187L40.8412 33.1968Z" fill="white"/>
</svg>
