<svg width="60" height="60" viewBox="0 0 60 60" fill="none" xmlns="http://www.w3.org/2000/svg">
<path fill-rule="evenodd" clip-rule="evenodd" d="M35.2494 24.6383C35.2484 24.6389 35.2474 24.6394 35.2464 24.64L32.831 26.0019C32.5094 26.1806 32.2434 26.4111 32.0296 26.678C32.0294 26.6783 32.0291 26.6787 32.0289 26.679L27.4183 32.4678C26.9574 33.085 26.3032 33.4787 25.6737 33.7106L25.6648 33.7139L20.0793 35.7215C18.4128 36.3048 17.5167 37.6054 17.5167 38.8544V45.0985C17.5167 45.5006 18.0259 46.2111 19.0919 46.2111H24V48.6111H19.0919C17.1257 48.6111 15.1167 47.2146 15.1167 45.0985V38.8544C15.1167 36.4048 16.8393 34.3147 19.2815 33.458L24.848 31.4571C25.1854 31.3321 25.3957 31.1677 25.4989 31.027L25.513 31.0077L30.1532 25.1817L30.1548 25.1797C30.5569 24.6771 31.0603 24.2407 31.6618 23.9059C31.663 23.9052 31.6642 23.9045 31.6654 23.9039L34.0808 22.542C34.9568 22.0553 35.9546 21.8 36.9762 21.8H52.3167V24.2H36.9762C36.3546 24.2 35.7603 24.3552 35.2494 24.6383Z" fill="white"/>
<path fill-rule="evenodd" clip-rule="evenodd" d="M33.0449 44.7568C31.5789 44.7568 30.3905 45.9452 30.3905 47.4111C30.3905 48.8771 31.5789 50.0655 33.0449 50.0655C34.5108 50.0655 35.6993 48.8771 35.6993 47.4111C35.6993 45.9452 34.5108 44.7568 33.0449 44.7568ZM27.9905 47.4111C27.9905 44.6197 30.2534 42.3568 33.0449 42.3568C35.8363 42.3568 38.0993 44.6197 38.0993 47.4111C38.0993 50.2026 35.8363 52.4655 33.0449 52.4655C30.2534 52.4655 27.9905 50.2026 27.9905 47.4111Z" fill="white"/>
<path fill-rule="evenodd" clip-rule="evenodd" d="M42.4 48.2H52.4V45.8H42.4V48.2Z" fill="white"/>
<path fill-rule="evenodd" clip-rule="evenodd" d="M40 48.2L42.4 48.2V45.8L40 48.2Z" fill="white"/>
<path fill-rule="evenodd" clip-rule="evenodd" d="M26.4 48.6H24V46.2L26.4 48.6Z" fill="white"/>
<path fill-rule="evenodd" clip-rule="evenodd" d="M20.1815 7.01062L27.7818 9.67773L27.8057 9.68732C28.2272 9.85591 28.6124 10.0891 28.9473 10.3936L28.9533 10.3991L30.1866 11.5515C30.8136 12.1471 31.2001 12.9971 31.2001 13.8815V20.0015H28.8V13.8815C28.8 13.687 28.7075 13.4583 28.5363 13.2942L27.3278 12.1649C27.2276 12.0749 27.1007 11.9928 26.9353 11.9242L19.3736 9.27059C19.1365 9.18523 18.8841 9.18513 18.647 9.27038C18.6468 9.27044 18.6471 9.27033 18.647 9.27038L11.2411 11.9453C11.1064 11.9983 10.9803 12.0718 10.8599 12.1702L10.8327 12.1925L9.47488 13.1764C9.2786 13.3607 9.20005 13.5677 9.20005 13.7615V22.0615C9.20005 25.6751 11.0775 29.0874 14.2978 31.1978L12.9823 33.2052C9.12257 30.6756 6.80005 26.5279 6.80005 22.0615V13.7615C6.80005 12.8056 7.23285 11.9445 7.93263 11.336L7.97281 11.301L9.36997 10.2886C9.6789 10.0408 10.0196 9.84366 10.3893 9.70147L10.4008 9.69704L17.8336 7.01242C18.5946 6.73845 19.4202 6.73784 20.1815 7.01062Z" fill="white"/>
<path fill-rule="evenodd" clip-rule="evenodd" d="M19.0606 23.5771C18.6639 24.0145 18.1267 24.2015 17.6201 24.2015H17.1601C16.5564 24.2015 16.0657 23.9241 15.7316 23.59L15.6875 23.5459L13.0682 20.3175L14.932 18.8054L17.3627 21.8015H17.4381L23.4341 15.5508L25.1661 17.2122L19.0606 23.5771Z" fill="white"/>
</svg>
