<svg width="60" height="60" viewBox="0 0 60 60" fill="none" xmlns="http://www.w3.org/2000/svg">
<path fill-rule="evenodd" clip-rule="evenodd" d="M29.4929 44.3637H25.6206V41.9637H29.4929V44.3637Z" fill="white"/>
<path fill-rule="evenodd" clip-rule="evenodd" d="M4.1499 46.7H6.5499V49.1L4.1499 46.7Z" fill="white"/>
<path fill-rule="evenodd" clip-rule="evenodd" d="M29.8155 49.0884H6.51758V46.6884H29.8155V49.0884Z" fill="white"/>
<path fill-rule="evenodd" clip-rule="evenodd" d="M32.2154 46.7H29.8154V49.1L32.2154 46.7Z" fill="white"/>
<path fill-rule="evenodd" clip-rule="evenodd" d="M20.2831 18.3561H33.8621C34.7895 18.3561 35.6951 18.586 36.4926 19.0309L36.4983 19.034L38.6278 20.2372C39.1827 20.542 39.6446 20.9432 40.0101 21.4042L40.0109 21.4053L44.1153 26.5649L44.1287 26.5831C44.1975 26.6765 44.3548 26.8064 44.647 26.9164L49.5728 28.6871C51.7765 29.4626 53.3525 31.3525 53.3525 33.5933V41.1179C53.3525 43.0941 51.4828 44.3637 49.6935 44.3637H46.7999V41.9637H49.6935C50.5891 41.9637 50.9525 41.3746 50.9525 41.1179V33.5933C50.9525 32.5571 50.2071 31.4534 48.7733 30.95L48.7648 30.9471L43.8208 29.1698L43.814 29.1672C43.2519 28.9575 42.6442 28.6039 42.2109 28.0261L38.1299 22.8959C37.9551 22.6753 37.7358 22.4848 37.4685 22.3386L37.4612 22.3346L35.3234 21.1268L35.3208 21.1254C34.8926 20.8871 34.3922 20.7561 33.8621 20.7561H20.2831V18.3561Z" fill="white"/>
<path fill-rule="evenodd" clip-rule="evenodd" d="M37.3343 36.0769C34.841 36.0769 32.8226 38.0954 32.8226 40.5886C32.8226 43.0819 34.841 45.1003 37.3343 45.1003C39.8275 45.1003 41.846 43.0819 41.846 40.5886C41.846 38.0954 39.8275 36.0769 37.3343 36.0769ZM30.4226 40.5886C30.4226 36.7699 33.5156 33.6769 37.3343 33.6769C41.153 33.6769 44.246 36.7699 44.246 40.5886C44.246 44.4073 41.153 47.5003 37.3343 47.5003C33.5156 47.5003 30.4226 44.4073 30.4226 40.5886Z" fill="white"/>
<path fill-rule="evenodd" clip-rule="evenodd" d="M14.6874 17.8723L12.7513 20.2723H10.7764V17.8723H14.6874Z" fill="white"/>
<path fill-rule="evenodd" clip-rule="evenodd" d="M46.3167 41.95L44.8 44.35H46.7943V41.95H46.3167Z" fill="white"/>
<path fill-rule="evenodd" clip-rule="evenodd" d="M24.962 32.6833V38.2143C24.962 41.0456 22.6693 43.3383 19.838 43.3383H15.6172V40.9383H19.838C21.3438 40.9383 22.562 39.7201 22.562 38.2143V32.6833H24.962Z" fill="white"/>
<path fill-rule="evenodd" clip-rule="evenodd" d="M8.94993 8.79999H15.7913L18.1077 11.1164V32.6318L15.6299 35.1096H8.90814L6.54959 32.1548V11.4769L8.94993 8.79999ZM10.0215 11.2L8.94959 12.3954V31.3144L10.0632 32.7096H14.6358L15.7077 31.6377V12.1105L14.7971 11.2H10.0215Z" fill="white"/>
<path fill-rule="evenodd" clip-rule="evenodd" d="M8.60859 46.8819V34.1355H11.0086V46.8819H8.60859Z" fill="white"/>
<path fill-rule="evenodd" clip-rule="evenodd" d="M13.5781 46.8819V34.1355H15.9781V46.8819H13.5781Z" fill="white"/>
<path fill-rule="evenodd" clip-rule="evenodd" d="M20.8323 26.417H26.5429L27.6467 28.6245V32.7801H25.2467V29.1911L25.0596 28.817H22.3156L22.1286 29.1911V32.7801H19.7286V28.6245L20.8323 26.417Z" fill="white"/>
</svg>
