<svg width="20" height="20" viewBox="0 0 20 20" fill="none" xmlns="http://www.w3.org/2000/svg">
<path fill-rule="evenodd" clip-rule="evenodd" d="M6.02456 9.16667H13.9741L12.8537 13.8139L12.8504 13.826C12.7851 14.065 12.6525 14.2854 12.4574 14.4585L12.4433 14.4711L12.1466 14.7112C11.9075 14.9149 11.6162 15 11.351 15H8.64772C8.38251 15 8.09124 14.9149 7.85214 14.7112L7.57481 14.4868C7.3388 14.3001 7.20449 14.0513 7.14377 13.8088L7.142 13.8017L6.02456 9.16667ZM8.1408 10.8333L8.73011 13.2777L8.79888 13.3333H11.1998L11.2686 13.2777L11.8579 10.8333H8.1408Z" fill="#999999"/>
<path fill-rule="evenodd" clip-rule="evenodd" d="M3.19131 9.16667H16.8074L17.8562 9.66359L17.1425 11.1697L16.4325 10.8333H3.56618L2.85616 11.1697L2.14253 9.66359L3.19131 9.16667Z" fill="#999999"/>
<path fill-rule="evenodd" clip-rule="evenodd" d="M1.66602 10.799C1.66602 6.21642 5.39169 2.5 9.99516 2.5C14.5962 2.5 18.3327 6.20568 18.3327 10.7907C18.3327 13.1024 17.4392 15.4284 15.8297 16.962L14.6799 15.7554C15.918 14.5758 16.666 12.707 16.666 10.7907C16.666 7.13598 13.6856 4.16667 9.99516 4.16667C6.30717 4.16667 3.33268 7.14188 3.33268 10.799C3.33268 12.6752 4.17783 14.5448 5.4379 15.7575C5.44217 15.7597 5.47082 15.7771 5.53764 15.796C5.62564 15.8208 5.72878 15.8333 5.81593 15.8333H12.5161V17.5H5.81593C5.5932 17.5 5.3362 17.4709 5.08501 17.4C4.84269 17.3316 4.54108 17.2062 4.29338 16.9691C2.71048 15.4516 1.66602 13.1467 1.66602 10.799Z" fill="#999999"/>
<path fill-rule="evenodd" clip-rule="evenodd" d="M14.166 17.5H12.4993V15.8333L14.166 17.5Z" fill="#999999"/>
</svg>
