<svg width="20" height="20" viewBox="0 0 20 20" fill="none" xmlns="http://www.w3.org/2000/svg">
<path d="M11.2885 3.3335C10.7932 3.3335 10.3148 3.51327 9.94201 3.83943L7.42253 6.04398C7.39941 6.06421 7.37529 6.08305 7.35031 6.10047L8.53501 7.28517L11.0395 5.09372C11.1085 5.03341 11.1969 5.00016 11.2885 5.00016C11.4974 5.00016 11.6667 5.16946 11.6667 5.3783V14.622C11.6667 14.8309 11.4974 15.0002 11.2885 15.0002C11.1969 15.0002 11.1085 14.9669 11.0395 14.9066L8.52004 12.7021C8.06431 12.3033 7.47933 12.0835 6.87378 12.0835H4.51185L4.16667 11.7383L4.16667 8.26201L4.51184 7.91683H6.66667L5 6.25016H4.51184C4.06982 6.25016 3.64589 6.42576 3.33333 6.73832L2.98816 7.0835C2.67559 7.39606 2.5 7.81998 2.5 8.26201V11.7383C2.5 12.1803 2.67559 12.6043 2.98816 12.9168L3.33333 13.262C3.64589 13.5746 4.06982 13.7502 4.51184 13.7502H6.87378C7.07563 13.7502 7.27062 13.8234 7.42253 13.9563L9.94201 16.1609C10.3148 16.4871 10.7932 16.6668 11.2885 16.6668C12.4178 16.6668 13.3333 15.7513 13.3333 14.622V5.3783C13.3333 4.24899 12.4178 3.3335 11.2885 3.3335Z" fill="#B2B2B2"/>
<path fill-rule="evenodd" clip-rule="evenodd" d="M16.6667 10.0003C16.6667 8.9344 16.4171 7.9292 15.9741 7.03771L17.4666 6.29596C18.0216 7.41278 18.3333 8.67131 18.3333 10.0003C18.3333 11.3292 18.0216 12.5877 17.4666 13.7046L15.9741 12.9628C16.4171 12.0713 16.6667 11.0661 16.6667 10.0003Z" fill="#B2B2B2"/>
</svg>
