<svg width="49" height="48" viewBox="0 0 49 48" fill="none" xmlns="http://www.w3.org/2000/svg">
<path fill-rule="evenodd" clip-rule="evenodd" d="M13.64 40C12.55 40 11.55 39.61 10.81 38.9C6.92 35.17 4.5 29.46 4.5 24C4.5 12.97 13.47 4 24.5 4C35.53 4 44.5 12.97 44.5 24C44.5 29.73 42.26 35.3 38.5 38.9L37.12 37.46C40.49 34.22 42.5 29.19 42.5 24C42.5 23.519 42.4811 23.0423 42.4439 22.5708L41.0203 21.82H33.1103L30.9702 30.74C30.8602 31.19 30.6002 31.6 30.2402 31.9L29.4602 32.53C29.0902 32.83 28.6102 33 28.1302 33H20.8702C20.3902 33 19.9102 32.83 19.5402 32.53L18.7602 31.9C18.4002 31.61 18.1402 31.2 18.0302 30.74L15.89 21.82H7.98027L6.55608 22.5711C6.51893 23.0425 6.5 23.5191 6.5 24C6.5 28.93 8.68 34.09 12.19 37.46C12.55 37.81 13.07 38 13.63 38H32.5L34.5 40H13.64ZM41.5103 19.82L42.0797 20.1209C40.3024 12.051 33.0985 6 24.5 6C15.9013 6 8.69736 12.0511 6.92022 20.1212L7.49027 19.82H41.5103ZM17.9426 21.83L19.9702 30.28L20.7902 30.98L28.1202 31.01L28.9802 30.35L31.0502 21.83H17.9426Z" fill="white"/>
</svg>
