<svg width="49" height="48" viewBox="0 0 49 48" fill="none" xmlns="http://www.w3.org/2000/svg">
<path fill-rule="evenodd" clip-rule="evenodd" d="M18.5736 4.57191C18.8526 4.2113 19.2724 4.00977 19.71 4.00977H29.3C29.7833 4.00977 30.1806 4.25907 30.424 4.55653L30.4283 4.56182L31.1494 5.45561L31.16 5.46977C31.367 5.74571 31.51 6.11289 31.51 6.50977V7.99976H35.38C36.0891 7.99976 36.7355 8.32022 37.1904 8.83872L37.8126 9.54124C38.2583 10.0507 38.5 10.7172 38.5 11.3998V41.9998H36.5V11.3998C36.5 11.1833 36.4224 10.9906 36.309 10.86L35.6874 10.1583C35.5824 10.0383 35.4698 9.99976 35.38 9.99976H31.4355C31.3754 10.1978 31.2771 10.3891 31.1345 10.5624L30.4364 11.4276C30.1574 11.7882 29.7376 11.9898 29.3 11.9898H19.71C19.2267 11.9898 18.8294 11.7405 18.586 11.443L18.5817 11.4377L17.8606 10.5439L17.85 10.5298C17.7358 10.3774 17.641 10.1973 17.579 9.99976H13.62C13.5302 9.99976 13.4176 10.0382 13.3126 10.1583L13.3086 10.1628L12.691 10.86C12.5776 10.9906 12.5 11.1833 12.5 11.3998V38.5998C12.5 38.8162 12.5776 39.009 12.6911 39.1395L12.6926 39.1413L13.3126 39.8412C13.4176 39.9613 13.5302 39.9998 13.62 39.9998H31.5L33.5 41.9998H13.62C12.911 41.9998 12.2646 41.6793 11.8097 41.1609L11.8074 41.1583L11.1874 40.4583C10.7417 39.9489 10.5 39.2823 10.5 38.5998V11.3998C10.5 10.7172 10.7417 10.0507 11.1874 9.54125L11.1914 9.53671L11.8097 8.83871C12.2645 8.32021 12.9109 7.99976 13.62 7.99976H17.5V6.50977C17.5 6.13869 17.6121 5.75701 17.8756 5.43708L18.5736 4.57191ZM19.9833 6.00977L19.5 6.60879V9.39074L19.9833 9.98977H29.0267L29.51 9.39074V6.60879L29.0267 6.00977H19.9833Z" fill="white"/>
<path d="M24.5049 28.7492L32.2315 20.6919L30.788 19.3076L23.1033 27.3212C23.0973 27.3258 23.0926 27.3281 23.0902 27.3292L23.0887 27.3298H22.5038L19.2749 23.368L17.7246 24.6315L21.0009 28.6515L21.0182 28.6707C21.3964 29.0886 21.9351 29.3298 22.4998 29.3298H23.0898C23.6376 29.3298 24.1283 29.106 24.4875 28.7657L24.5049 28.7492Z" fill="white"/>
</svg>
