<svg width="49" height="48" viewBox="0 0 49 48" fill="none" xmlns="http://www.w3.org/2000/svg">
<path fill-rule="evenodd" clip-rule="evenodd" d="M15.358 14C14.7233 13.1206 14.4 12.0324 14.4 10.95C14.4 9.67 14.83 8.48 15.61 7.58C16.51 6.55 17.77 6 19.27 6C21.9409 6 23.535 7.75054 24.43 9.83958C25.325 7.75054 26.9191 6 29.59 6C32.79 6 34.46 8.49 34.46 10.95C34.46 12.0836 34.1228 13.1465 33.5039 14H39.87C40.42 14 40.96 14.23 41.34 14.64L41.78 15.1C42.16 15.5 42.36 16.02 42.36 16.58V22.36C42.36 22.91 42.15 23.44 41.78 23.84L41.34 24.3C40.96 24.71 40.42 24.94 39.87 24.94H39.43V42H37.43V24.94H11.5361L11.4891 39.4014L12.0089 39.9411C12.0089 39.9411 12.0889 39.9911 12.1388 39.9911H32.49V40L34.49 42H12.1388C11.5691 42 11.0293 41.7801 10.6195 41.3903L10.1397 40.9206C9.7299 40.5208 9.49 39.9711 9.49 39.4014L9.53693 24.94H8.99C8.44 24.94 7.9 24.71 7.52 24.3L7.08 23.84C6.7 23.44 6.5 22.92 6.5 22.36V16.58C6.5 16.02 6.71 15.5 7.08 15.1L7.52 14.64C7.9 14.23 8.44 14 8.99 14H15.358ZM25.49 13.9H29.59C30.5 13.9 31.22 13.6 31.74 13.01C32.2 12.48 32.46 11.73 32.46 10.95C32.46 9.48 31.57 8 29.59 8C26.45 8 25.68 11.99 25.49 13.9ZM8.99 16L8.97 16.02L8.53 16.48C8.53 16.48 8.49 16.54 8.49 16.58V22.36C8.49 22.36 8.5 22.44 8.53 22.46L8.97 22.92H23.43V16.0093L8.99 16ZM25.43 16.0106V22.92H39.87L40.33 22.46C40.35 22.44 40.37 22.4 40.37 22.36V16.58C40.37 16.58 40.36 16.5 40.33 16.48L39.89 16.02L25.43 16.0106ZM16.39 10.95C16.39 9.48 17.28 8 19.26 8C22.4 8 23.17 11.99 23.36 13.9H19.26C17.28 13.9 16.39 12.42 16.39 10.95Z" fill="white"/>
</svg>
