<svg width="24" height="24" viewBox="0 0 24 24" fill="none" xmlns="http://www.w3.org/2000/svg">
<path d="M7.55747 3C5.03887 3 3 5.03887 3 7.55747V16.4425C3 18.9611 5.03887 21 7.55747 21H10.6058V14.5736H8.34703V12.005H10.6058V10.0461C10.6058 7.81732 11.935 6.58801 13.9639 6.58801C14.9334 6.58801 15.9528 6.75791 15.9528 6.75791V8.9467H14.8334C13.734 8.9467 13.3842 9.63631 13.3842 10.3359V12.005H15.8529L15.4631 14.5736H13.3942V21H16.4425C18.9611 21 21 18.9611 21 16.4425V7.55747C21 5.03887 18.9611 3 16.4425 3H7.55747Z" fill="white"/>
</svg>
