<svg width="48" height="48" viewBox="0 0 48 48" fill="none" xmlns="http://www.w3.org/2000/svg">
<path d="M14.4199 4.19103C15.1119 3.94071 15.8702 3.9431 16.5638 4.18878L16.5657 4.18943L23.8063 6.76966C24.2161 6.91602 24.5969 7.14945 24.9097 7.44727L24.9114 7.4489L26.0659 8.55363C26.6659 9.11218 27 9.88536 27 10.6914V18.0014H25V10.6914C25 10.4405 24.8966 10.1965 24.701 10.0155L24.6947 10.0098L23.5296 8.89488C23.4225 8.79302 23.2835 8.70668 23.1337 8.65315L15.8953 6.07374C15.6299 5.97995 15.3493 5.98218 15.102 6.0711L15.1001 6.07178L8.02472 8.67011L8.01872 8.67229C7.89464 8.71696 7.76743 8.79153 7.64765 8.89335L7.62255 8.91468L6.31564 9.88496C6.10512 10.0832 6 10.3351 6 10.5814V18.6214C6 22.1937 7.83163 25.5573 10.9247 27.6194L13.554 29.3689L12.446 31.0339L9.8153 29.2835C6.18837 26.8655 4 22.8891 4 18.6214V10.5814C4 9.71782 4.38604 8.92038 5.0178 8.36208L5.04971 8.33388L6.37972 7.34645C6.65332 7.11875 6.97556 6.92266 7.33796 6.79172L14.4153 4.1927L14.4199 4.19103Z" fill="white"/>
<path d="M19.9482 12.3192L21.3915 13.7037L15.2643 20.0912L15.257 20.0985C14.9139 20.4415 14.4572 20.6214 13.9898 20.6214H13.5198C13.02 20.6214 12.5308 20.4206 12.18 20.023L12.1669 20.0082L9.56448 16.8129L11.1152 15.5499L13.6169 18.6214H13.9028L19.9482 12.3192Z" fill="white"/>
<path d="M24.95 22.9814C24.7479 22.9814 24.5391 23.0467 24.3667 23.1684L23.4267 23.8284L23.4258 23.829C23.2448 23.957 23.1109 24.1287 23.0333 24.3304L21.1252 29.2855C20.9482 29.759 20.6333 30.1364 20.2511 30.4023L20.2454 30.4063L18.4689 31.6238C18.1758 31.8292 18 32.1634 18 32.5214V41.8498L18.1468 42.0014H20.8732L21.02 41.8498V40.0014H23.02V41.9414C23.02 42.4061 22.836 42.8361 22.5428 43.1518L22.5358 43.1594L22.2229 43.4827L22.2171 43.4885C21.9077 43.7979 21.4798 44.0014 21 44.0014H18.02C17.5652 44.0014 17.1107 43.8156 16.7859 43.4711L16.4842 43.1594L16.4772 43.1518C16.184 42.8361 16 42.4061 16 41.9414V32.5214C16 31.5004 16.5032 30.5556 17.3285 29.9808L17.3346 29.9765L19.111 28.759C19.1856 28.7066 19.229 28.6469 19.2523 28.5841L19.2567 28.572L21.1667 23.6124C21.3889 23.0345 21.7747 22.5464 22.2733 22.1944L22.2754 22.193L23.2133 21.5344L23.2145 21.5336C23.7219 21.1758 24.3326 20.9814 24.95 20.9814H35.05C35.68 20.9814 36.2804 21.1774 36.7856 21.5337L36.7867 21.5344L37.7267 22.1944C38.2252 22.5463 38.6109 23.0343 38.8332 23.612L40.7432 28.572C40.7712 28.6447 40.8244 28.7135 40.8891 28.7591L40.8911 28.7605L42.6715 29.9808C43.4968 30.5555 44 31.5004 44 32.5214V41.5014C44 42.8387 42.9562 44.0014 41.57 44.0014H39.43C38.0438 44.0014 37 42.8387 37 41.5014V40.0014H39V41.5014C39 41.8241 39.2362 42.0014 39.43 42.0014H41.57C41.7638 42.0014 42 41.8241 42 41.5014V32.5214C42 32.1634 41.8242 31.8292 41.5311 31.6238L41.5285 31.622L39.7489 30.4023C39.3546 30.128 39.0486 29.7372 38.8768 29.2908L36.9668 24.3308C36.8892 24.129 36.7551 23.9569 36.5741 23.8289L35.6354 23.1698L35.6333 23.1684C35.4588 23.0452 35.2595 22.9814 35.05 22.9814H24.95Z" fill="white"/>
<path d="M23 32.0014L25 30.0014H35L37 32.0014H23Z" fill="white"/>
<path d="M20 35.0014V33.0014H22L24 35.0014H20Z" fill="white"/>
<path d="M39.9999 35.0014V33.0014H37.9999L35.8799 35.0014H39.9999Z" fill="white"/>
<path d="M24 38.0014H36L34 40.0014H26L24 38.0014Z" fill="white"/>
</svg>
