<svg width="49" height="48" viewBox="0 0 49 48" fill="none" xmlns="http://www.w3.org/2000/svg">
<path fill-rule="evenodd" clip-rule="evenodd" d="M14.8631 10.3879C16.1923 8.86633 18.1072 8 20.13 8H28.87C30.8898 8 32.8065 8.87417 34.138 10.3892L34.1388 10.39L37.0174 13.6785C37.9772 14.7755 38.5 16.1714 38.5 17.63V23H34.5C31.7377 23 29.5 25.2377 29.5 28V31C29.5 33.7623 31.7377 36 34.5 36H38.4185C38.221 37.1594 37.6773 38.0496 36.9273 38.6915C35.9558 39.5229 34.5618 40 32.94 40H23.5V42H32.94C34.9382 42 36.8242 41.4121 38.2277 40.211C39.6499 38.9939 40.5 37.2101 40.5 35V17.63C40.5 15.6887 39.8027 13.8245 38.5226 12.3615L35.6424 9.07133L35.6412 9.06996C33.9328 7.1255 31.4698 6 28.87 6H20.13C17.5329 6 15.0679 7.11357 13.3571 9.07184L10.4776 12.3613L10.4745 12.3648C9.2096 13.8235 8.5 15.6851 8.5 17.63V32.17C8.5 32.9709 8.81941 33.7236 9.38289 34.2871L10.2087 35.1129C10.7711 35.6876 11.5392 36 12.33 36H14.5C17.2623 36 19.5 33.7623 19.5 31V28C19.5 25.2377 17.2623 23 14.5 23H10.5V17.63C10.5 16.1757 11.0299 14.778 11.984 13.6769L14.8631 10.3879ZM34.5 25H38.5V34H34.5C32.8423 34 31.5 32.6577 31.5 31V28C31.5 26.3423 32.8423 25 34.5 25ZM10.5 32.17V25H14.5C16.1577 25 17.5 26.3423 17.5 28V31C17.5 32.6577 16.1577 34 14.5 34H12.33C12.0632 34 11.8136 33.8943 11.6365 33.7124L11.6271 33.7029L10.7971 32.8729C10.6006 32.6764 10.5 32.4291 10.5 32.17Z" fill="white"/>
<path d="M23.5 40H21.46L23.5 42V40Z" fill="white"/>
</svg>
