<svg width="24" height="24" viewBox="0 0 24 24" fill="none" xmlns="http://www.w3.org/2000/svg">
<path d="M6.42032 10.8203C6.04032 10.8203 5.73032 11.1303 5.73032 11.5103C5.73032 11.8903 6.04032 12.2003 6.42032 12.2003C6.80032 12.2003 7.11032 11.8903 7.11032 11.5103C7.11032 11.1303 6.80032 10.8203 6.42032 10.8203Z" fill="white"/>
<path d="M13.2009 12.23C13.6096 12.23 13.9409 11.8987 13.9409 11.49C13.9409 11.0813 13.6096 10.75 13.2009 10.75C12.7922 10.75 12.4609 11.0813 12.4609 11.49C12.4609 11.8987 12.7922 12.23 13.2009 12.23Z" fill="white"/>
<path d="M19.3293 4H4.68072C3.20482 4 2 5.19 2 6.67V15.33C2 16.8 3.19478 18 4.68072 18H9.85141L11.6084 21.64C11.6084 21.64 11.7289 22 12.0201 22C12.3112 22 12.4317 21.64 12.4317 21.64L14.1888 18H19.3193C20.7952 18 22 16.81 22 15.33V6.67C22 5.2 20.8052 4 19.3193 4H19.3293ZM8.29518 11.66C8.29518 13.24 6.63855 13.29 6.63855 13.29C6.00602 13.29 5.64458 12.87 5.64458 12.87V13.16H4.4498V8.24C4.52008 8.25 5.64458 8.24 5.64458 8.24V10.12C5.9257 9.64 6.73896 9.65 6.73896 9.65C8.51606 9.81 8.28514 11.66 8.28514 11.66H8.29518ZM10.3936 9.79V13.16H9.21888V9.83C9.21888 9.38 8.65663 9.25 8.65663 9.25V8.07C10.5241 8.15 10.3936 9.79 10.3936 9.79ZM13.1747 13.29C12.0904 13.29 11.2068 12.48 11.2068 11.49C11.2068 10.5 12.0904 9.69 13.1747 9.69C14.259 9.69 15.1426 10.5 15.1426 11.49C15.1426 12.48 14.259 13.29 13.1747 13.29ZM19.5904 13.29C19.5904 13.29 19.6104 15 17.8635 15H17.3313V13.89H17.6526C17.6526 13.89 18.3855 13.96 18.3755 12.83C18.3755 12.83 18.2349 13.29 17.2008 13.29C17.2008 13.29 15.745 13.19 15.745 11.77V11.23C15.745 11.23 15.7751 9.76 17.3815 9.64C17.3815 9.64 18.0141 9.57 18.4056 10.09V9.73H19.5904V13.29Z" fill="white"/>
<path d="M17.7395 12.2095C18.1372 12.2095 18.4595 11.8872 18.4595 11.4895C18.4595 11.0919 18.1372 10.7695 17.7395 10.7695C17.3419 10.7695 17.0195 11.0919 17.0195 11.4895C17.0195 11.8872 17.3419 12.2095 17.7395 12.2095Z" fill="white"/>
</svg>
