
<svg width="24" height="24" viewBox="0 0 24 24" fill="none" xmlns="http://www.w3.org/2000/svg">
<g clip-path="url(#clip0_11162_2908)">
<circle cx="12" cy="12" r="12" fill="#C4A96C"/>
<path fill-rule="evenodd" clip-rule="evenodd" d="M14 12.6333C15.0264 12.6333 15.9267 13.1269 16.559 13.8011C17.1873 14.471 17.6 15.3707 17.6 16.2667C17.6 17.6331 16.3525 18.6 15 18.6H9.00003C7.64757 18.6 6.40002 17.6331 6.40002 16.2667C6.40002 15.3707 6.8127 14.471 7.44107 13.8011C8.07334 13.1269 8.97364 12.6333 10 12.6333H14ZM15.2666 7.77333C15.2666 9.61397 13.8261 11.1467 12 11.1467C10.1739 11.1467 8.7333 9.61397 8.7333 7.77333C8.7333 5.93268 10.1739 4.39999 12 4.39999C13.8261 4.39999 15.2666 5.93268 15.2666 7.77333Z" fill="white"/>
</g>
<defs>
<clipPath id="clip0_11162_2908">
<rect width="24" height="24" fill="white"/>
</clipPath>
</defs>
</svg>
