<svg width="49" height="48" viewBox="0 0 49 48" fill="none" xmlns="http://www.w3.org/2000/svg">
<path d="M44.5 38.7298V36.4598L44.49 36.4598V24.6398C44.49 23.2398 43.85 21.9198 42.77 21.1198L40.17 19.1998C39.99 19.0698 39.85 18.8798 39.77 18.6498L39.6565 18.3298H44.5V16.0598H40.5L39.3246 17.3938L36.99 10.8098C36.7 10.0098 36.21 9.32977 35.55 8.82977L34.17 7.78977C33.5 7.27977 32.7 7.00977 31.87 7.00977H17.11C16.28 7.00977 15.49 7.27977 14.81 7.78977L13.43 8.82977C12.78 9.32977 12.28 10.0098 12 10.8098L9.67034 17.3881L8.5 16.0598H4.5V18.3298H9.33686L9.22 18.6598C9.14 18.8798 9 19.0798 8.82 19.2098L6.22 21.1298C5.14 21.9298 4.5 23.2398 4.5 24.6498V36.4698L4.50977 36.4698V39.3998C4.50977 39.9398 4.69977 40.4698 5.04977 40.8598L5.45977 41.3298C5.83977 41.7598 6.36977 41.9998 6.91977 41.9998H11.0998C11.6498 41.9998 12.1798 41.7598 12.5598 41.3298L12.9698 40.8598C13.3198 40.4698 13.5098 39.9498 13.5098 39.3998V35.9998H11.5098V39.3998C11.5098 39.4598 11.4898 39.5098 11.4698 39.5398L11.0998 40.0098H6.96977L6.54977 39.5398C6.52977 39.5098 6.50977 39.4598 6.50977 39.3998V36.4698L6.5 36.4698V24.6498C6.5 23.8698 6.85 23.1498 7.42 22.7298L10.02 20.8098C10.52 20.4398 10.89 19.9298 11.11 19.3198L13.89 11.4698C14.04 11.0398 14.3 10.6798 14.64 10.4198L16.02 9.37977C16.35 9.12977 16.73 8.99977 17.12 8.99977H31.88C32.27 8.99977 32.65 9.12977 32.98 9.37977L34.36 10.4198C34.7 10.6798 34.96 11.0398 35.11 11.4698L37.89 19.3198C38.1 19.9298 38.48 20.4398 38.98 20.8098L41.58 22.7298C42.16 23.1598 42.5 23.8698 42.5 24.6498V38.7298C42.5 39.4198 42.04 39.9998 41.5 39.9998H38.5C37.96 39.9998 37.5 39.4198 37.5 38.7298V35.9998H35.5V38.7298C35.5 40.5298 36.85 41.9998 38.5 41.9998H41.5C43.15 41.9998 44.5 40.5298 44.5 38.7298Z" fill="white"/>
<path d="M13.5 22.7298L15.5 20.7298H33.5L35.5 22.7298H13.5Z" fill="white"/>
<path d="M9.5 25.9998V27.9998H15.5L13.5 25.9998H9.5Z" fill="white"/>
<path d="M39.5 27.9998V25.9998H35.5L33.5 27.9998H39.5Z" fill="white"/>
<path d="M34.5 33.9998H14.5L16.5 35.9998H32.5L34.5 33.9998Z" fill="white"/>
</svg>
