<svg width="42" height="12" viewBox="0 0 42 12" fill="none" xmlns="http://www.w3.org/2000/svg">
<path d="M7.657 11.599L6.279 9.948C5.89767 10.0433 5.50767 10.091 5.109 10.091C4.25967 10.091 3.47967 9.89167 2.769 9.493C2.05833 9.09433 1.495 8.544 1.079 7.842C0.663 7.13133 0.455 6.32967 0.455 5.437C0.455 4.553 0.663 3.76 1.079 3.058C1.495 2.34733 2.05833 1.79267 2.769 1.394C3.47967 0.995333 4.25967 0.796 5.109 0.796C5.967 0.796 6.747 0.995333 7.449 1.394C8.15967 1.79267 8.71867 2.34733 9.126 3.058C9.542 3.76 9.75 4.553 9.75 5.437C9.75 6.243 9.57667 6.97967 9.23 7.647C8.892 8.30567 8.42833 8.843 7.839 9.259L9.919 11.599H7.657ZM2.327 5.437C2.327 6.04367 2.444 6.57667 2.678 7.036C2.912 7.49533 3.237 7.85067 3.653 8.102C4.07767 8.34467 4.563 8.466 5.109 8.466C5.655 8.466 6.136 8.34467 6.552 8.102C6.968 7.85067 7.293 7.49533 7.527 7.036C7.761 6.57667 7.878 6.04367 7.878 5.437C7.878 4.83033 7.761 4.30167 7.527 3.851C7.293 3.39167 6.968 3.04067 6.552 2.798C6.136 2.55533 5.655 2.434 5.109 2.434C4.563 2.434 4.07767 2.55533 3.653 2.798C3.237 3.04067 2.912 3.39167 2.678 3.851C2.444 4.30167 2.327 4.83033 2.327 5.437ZM12.9234 0.926V6.542C12.9234 7.15733 13.0838 7.62967 13.4044 7.959C13.7251 8.27967 14.1758 8.44 14.7564 8.44C15.3458 8.44 15.8008 8.27967 16.1214 7.959C16.4421 7.62967 16.6024 7.15733 16.6024 6.542V0.926H18.4354V6.529C18.4354 7.30033 18.2664 7.95467 17.9284 8.492C17.5991 9.02067 17.1528 9.41933 16.5894 9.688C16.0348 9.95667 15.4151 10.091 14.7304 10.091C14.0544 10.091 13.4391 9.95667 12.8844 9.688C12.3384 9.41933 11.9051 9.02067 11.5844 8.492C11.2638 7.95467 11.1034 7.30033 11.1034 6.529V0.926H12.9234ZM22.0139 0.926V10H20.1939V0.926H22.0139ZM23.37 5.45C23.37 4.55733 23.5694 3.76 23.968 3.058C24.3754 2.34733 24.9257 1.797 25.619 1.407C26.321 1.00833 27.1054 0.809 27.972 0.809C28.986 0.809 29.8744 1.069 30.637 1.589C31.3997 2.109 31.9327 2.82833 32.236 3.747H30.143C29.935 3.31367 29.6404 2.98867 29.259 2.772C28.8864 2.55533 28.453 2.447 27.959 2.447C27.4304 2.447 26.958 2.57267 26.542 2.824C26.1347 3.06667 25.814 3.41333 25.58 3.864C25.3547 4.31467 25.242 4.84333 25.242 5.45C25.242 6.048 25.3547 6.57667 25.58 7.036C25.814 7.48667 26.1347 7.83767 26.542 8.089C26.958 8.33167 27.4304 8.453 27.959 8.453C28.453 8.453 28.8864 8.34467 29.259 8.128C29.6404 7.90267 29.935 7.57333 30.143 7.14H32.236C31.9327 8.06733 31.3997 8.791 30.637 9.311C29.883 9.82233 28.9947 10.078 27.972 10.078C27.1054 10.078 26.321 9.883 25.619 9.493C24.9257 9.09433 24.3754 8.544 23.968 7.842C23.5694 7.14 23.37 6.34267 23.37 5.45ZM38.9126 10L35.6106 5.957V10H33.7906V0.926H35.6106V4.995L38.9126 0.926H41.1096L37.3656 5.424L41.2136 10H38.9126Z" fill="white"/>
</svg>
