<svg width="24" height="24" viewBox="0 0 24 24" fill="none" xmlns="http://www.w3.org/2000/svg">
<path d="M9 12.01C9 10.35 10.34 9.01 11.99 9C13.65 9 14.99 10.34 15 11.99C15 13.65 13.66 14.99 12.01 15C10.35 15 9.01 13.66 9 12.01Z" fill="white"/>
<path fill-rule="evenodd" clip-rule="evenodd" d="M20.94 8.27293C20.99 9.23346 21 9.54363 21 11.985C21 14.4263 21 14.7365 20.95 15.6971C20.91 16.6576 20.7599 17.3079 20.5397 17.8783C20.3096 18.4686 19.9994 18.9789 19.5092 19.4792C19.0089 19.9794 18.5086 20.2896 17.9183 20.5197C17.348 20.7399 16.6876 20.8999 15.7371 20.94C14.7765 20.99 14.4664 21 12.025 21C9.58366 21 9.27348 21 8.31295 20.95C7.35242 20.91 6.70206 20.7599 6.12173 20.5397C5.53141 20.3096 5.02112 19.9994 4.52085 19.5092C4.02057 19.0089 3.71039 18.5086 3.48027 17.9183C3.26014 17.348 3.10006 16.6876 3.06003 15.7371C3.01001 14.7765 3 14.4664 3 12.025C3 9.58366 3 9.27349 3.05003 8.31295C3.09005 7.35242 3.24013 6.70206 3.46026 6.12173C3.69038 5.53141 4.00056 5.03113 4.50083 4.52084C5.00111 4.02057 5.50139 3.71039 6.09172 3.48027C6.66203 3.26014 7.3224 3.10006 8.27293 3.06003C9.23346 3.01001 9.54363 3 11.985 3C14.4263 3 14.7365 3 15.6971 3.05003C16.6576 3.09005 17.3079 3.24013 17.8783 3.46026C18.4686 3.69038 18.9789 4.00056 19.4792 4.49083C19.9794 4.99111 20.2896 5.49138 20.5197 6.08171C20.7399 6.65203 20.8999 7.3124 20.94 8.26292V8.27293ZM7.37243 12.015C7.37243 14.5664 9.45359 16.6376 12.005 16.6276C14.5564 16.6276 16.6276 14.5464 16.6176 11.995C16.6176 9.44358 14.5364 7.37243 11.985 7.38243C9.43357 7.38243 7.36242 9.46359 7.37243 12.015ZM15.7071 7.19233C15.7071 7.79266 16.1973 8.27293 16.7877 8.27293C17.388 8.27293 17.8683 7.78266 17.8683 7.19233C17.8683 6.592 17.378 6.11173 16.7877 6.11173C16.1873 6.11173 15.7071 6.602 15.7071 7.19233Z" fill="white"/>
</svg>
