<svg width="24" height="24" viewBox="0 0 24 24" fill="none" xmlns="http://www.w3.org/2000/svg">
<path d="M21.5792 7.19061C21.3487 6.33428 20.6673 5.65718 19.8156 5.41821C18.2525 5 12 5 12 5C12 5 5.74749 5 4.18437 5.41821C3.32265 5.64723 2.6513 6.32432 2.42084 7.19061C2 8.75391 2 12 2 12C2 12 2 15.256 2.42084 16.8094C2.6513 17.6657 3.33267 18.3428 4.18437 18.5818C5.74749 19 12 19 12 19C12 19 18.2525 19 19.8156 18.5818C20.6774 18.3528 21.3487 17.6757 21.5792 16.8094C22 15.2461 22 12 22 12C22 12 22 8.74395 21.5792 7.19061ZM9.95591 9.05263L15.1764 12.01L9.95591 14.9673V9.05263Z" fill="white"/>
</svg>
